ModelForces
version=1
nRows=4
nColumns=206
inDegrees=no

This file contains the forces exerted on a model during a simulation.

A force is a generalized force, meaning that it can be either a force (N) or a torque (Nm).

Units are S.I. units (second, meters, Newtons, ...)
Angles are in degrees.

endheader
time	glut_med1_r	glut_med2_r	glut_med3_r	glut_min1_r	glut_min2_r	glut_min3_r	semimem_r	semiten_r	bifemlh_r	bifemsh_r	sar_r	add_long_r	add_brev_r	add_mag1_r	add_mag2_r	add_mag3_r	tfl_r	pect_r	grac_r	glut_max1_r	glut_max2_r	glut_max3_r	iliacus_r	psoas_r	quad_fem_r	gem_r	peri_r	rect_fem_r	vas_med_r	vas_int_r	vas_lat_r	med_gas_r	lat_gas_r	soleus_r	tib_post_r	flex_dig_r	flex_hal_r	tib_ant_r	per_brev_r	per_long_r	per_tert_r	ext_dig_r	ext_hal_r	glut_med1_l	glut_med2_l	glut_med3_l	glut_min1_l	glut_min2_l	glut_min3_l	semimem_l	semiten_l	bifemlh_l	bifemsh_l	sar_l	add_long_l	add_brev_l	add_mag1_l	add_mag2_l	add_mag3_l	tfl_l	pect_l	grac_l	glut_max1_l	glut_max2_l	glut_max3_l	iliacus_l	psoas_l	quad_fem_l	gem_l	peri_l	rect_fem_l	vas_med_l	vas_int_l	vas_lat_l	med_gas_l	lat_gas_l	soleus_l	tib_post_l	flex_dig_l	flex_hal_l	tib_ant_l	per_brev_l	per_long_l	per_tert_l	ext_dig_l	ext_hal_l	ercspn_r	ercspn_l	intobl_r	intobl_l	extobl_r	extobl_l	femur_lat_meniscii_l.femur_lat_l.force.X	femur_lat_meniscii_l.femur_lat_l.force.Y	femur_lat_meniscii_l.femur_lat_l.force.Z	femur_lat_meniscii_l.femur_lat_l.torque.X	femur_lat_meniscii_l.femur_lat_l.torque.Y	femur_lat_meniscii_l.femur_lat_l.torque.Z	femur_lat_meniscii_l.meniscus_lat_l.force.X	femur_lat_meniscii_l.meniscus_lat_l.force.Y	femur_lat_meniscii_l.meniscus_lat_l.force.Z	femur_lat_meniscii_l.meniscus_lat_l.torque.X	femur_lat_meniscii_l.meniscus_lat_l.torque.Y	femur_lat_meniscii_l.meniscus_lat_l.torque.Z	femur_med_meniscii_l.femur_med_l.force.X	femur_med_meniscii_l.femur_med_l.force.Y	femur_med_meniscii_l.femur_med_l.force.Z	femur_med_meniscii_l.femur_med_l.torque.X	femur_med_meniscii_l.femur_med_l.torque.Y	femur_med_meniscii_l.femur_med_l.torque.Z	femur_med_meniscii_l.meniscus_med_l.force.X	femur_med_meniscii_l.meniscus_med_l.force.Y	femur_med_meniscii_l.meniscus_med_l.force.Z	femur_med_meniscii_l.meniscus_med_l.torque.X	femur_med_meniscii_l.meniscus_med_l.torque.Y	femur_med_meniscii_l.meniscus_med_l.torque.Z	femur_lat_meniscii_r.femur_lat_r.force.X	femur_lat_meniscii_r.femur_lat_r.force.Y	femur_lat_meniscii_r.femur_lat_r.force.Z	femur_lat_meniscii_r.femur_lat_r.torque.X	femur_lat_meniscii_r.femur_lat_r.torque.Y	femur_lat_meniscii_r.femur_lat_r.torque.Z	femur_lat_meniscii_r.meniscus_lat_r.force.X	femur_lat_meniscii_r.meniscus_lat_r.force.Y	femur_lat_meniscii_r.meniscus_lat_r.force.Z	femur_lat_meniscii_r.meniscus_lat_r.torque.X	femur_lat_meniscii_r.meniscus_lat_r.torque.Y	femur_lat_meniscii_r.meniscus_lat_r.torque.Z	femur_med_meniscii_r.femur_med_r.force.X	femur_med_meniscii_r.femur_med_r.force.Y	femur_med_meniscii_r.femur_med_r.force.Z	femur_med_meniscii_r.femur_med_r.torque.X	femur_med_meniscii_r.femur_med_r.torque.Y	femur_med_meniscii_r.femur_med_r.torque.Z	femur_med_meniscii_r.meniscus_med_r.force.X	femur_med_meniscii_r.meniscus_med_r.force.Y	femur_med_meniscii_r.meniscus_med_r.force.Z	femur_med_meniscii_r.meniscus_med_r.torque.X	femur_med_meniscii_r.meniscus_med_r.torque.Y	femur_med_meniscii_r.meniscus_med_r.torque.Z	femur_med_tibia_l.tibia_upper_l.force.X	femur_med_tibia_l.tibia_upper_l.force.Y	femur_med_tibia_l.tibia_upper_l.force.Z	femur_med_tibia_l.tibia_upper_l.torque.X	femur_med_tibia_l.tibia_upper_l.torque.Y	femur_med_tibia_l.tibia_upper_l.torque.Z	femur_med_tibia_l.femur_med_l.force.X	femur_med_tibia_l.femur_med_l.force.Y	femur_med_tibia_l.femur_med_l.force.Z	femur_med_tibia_l.femur_med_l.torque.X	femur_med_tibia_l.femur_med_l.torque.Y	femur_med_tibia_l.femur_med_l.torque.Z	femur_lat_tibia_l.tibia_upper_l.force.X	femur_lat_tibia_l.tibia_upper_l.force.Y	femur_lat_tibia_l.tibia_upper_l.force.Z	femur_lat_tibia_l.tibia_upper_l.torque.X	femur_lat_tibia_l.tibia_upper_l.torque.Y	femur_lat_tibia_l.tibia_upper_l.torque.Z	femur_lat_tibia_l.femur_lat_l.force.X	femur_lat_tibia_l.femur_lat_l.force.Y	femur_lat_tibia_l.femur_lat_l.force.Z	femur_lat_tibia_l.femur_lat_l.torque.X	femur_lat_tibia_l.femur_lat_l.torque.Y	femur_lat_tibia_l.femur_lat_l.torque.Z	femur_med_tibia_r.tibia_upper_r.force.X	femur_med_tibia_r.tibia_upper_r.force.Y	femur_med_tibia_r.tibia_upper_r.force.Z	femur_med_tibia_r.tibia_upper_r.torque.X	femur_med_tibia_r.tibia_upper_r.torque.Y	femur_med_tibia_r.tibia_upper_r.torque.Z	femur_med_tibia_r.femur_med_r.force.X	femur_med_tibia_r.femur_med_r.force.Y	femur_med_tibia_r.femur_med_r.force.Z	femur_med_tibia_r.femur_med_r.torque.X	femur_med_tibia_r.femur_med_r.torque.Y	femur_med_tibia_r.femur_med_r.torque.Z	femur_lat_tibia_r.tibia_upper_r.force.X	femur_lat_tibia_r.tibia_upper_r.force.Y	femur_lat_tibia_r.tibia_upper_r.force.Z	femur_lat_tibia_r.tibia_upper_r.torque.X	femur_lat_tibia_r.tibia_upper_r.torque.Y	femur_lat_tibia_r.tibia_upper_r.torque.Z	femur_lat_tibia_r.femur_lat_r.force.X	femur_lat_tibia_r.femur_lat_r.force.Y	femur_lat_tibia_r.femur_lat_r.force.Z	femur_lat_tibia_r.femur_lat_r.torque.X	femur_lat_tibia_r.femur_lat_r.torque.Y	femur_lat_tibia_r.femur_lat_r.torque.Z	aACL_R	pACL_R	aPCL_R	pPCL_R	aMCL_R	mMCL_R	pMCL_R	aLCL_R	mLCL_R	pLCL_R	aPCL_L	pPCL_L	aMCL_L	aLCL_L	ground_prescribedForce_0_fx	ground_prescribedForce_0_fy	ground_prescribedForce_0_fz
      0.34357613	      7.92511357	      5.92529210	      6.34606208	      2.77545472	      3.30505725	      3.35194005	     11.44178737	      4.86733747	      7.58618989	      7.40485039	      1.71366173	      5.87349167	      4.32084480	      3.05164882	      2.56802005	      4.19351868	      4.26185966	      2.33745850	      1.75960364	      3.82344799	      5.81114301	      4.34143387	     23.11851709	     13.49708201	      3.78914173	      2.93054052	      4.38635869	     12.11835542	      8.62309568	      7.43833411	      7.98008167	      4.58324865	      2.05976733	      9.23369648	     12.36277840	      2.60732786	      2.51239917	     13.48244872	      3.33336233	      6.61767888	      9.19215838	      7.36610769	      1.97774900	      7.92511357	      5.92529210	      6.34606208	      2.77545472	      3.30505725	      3.35194005	      9.29220253	      4.28528013	      8.13899685	      7.53949265	      1.58603001	      5.87349167	      4.32084480	      3.05164882	      2.56802005	      4.19351868	      4.22454776	      2.33745850	      1.62789608	      3.82344799	      5.81114301	      4.34143387	     23.11851709	     13.49708201	      3.78914173	      2.93054052	      4.38635869	     11.28834399	      6.90185814	      7.92397826	      8.51846539	     15.20671172	      7.06162040	     33.33620665	     43.24906145	      3.00892045	      3.14561826	      8.91979327	      4.61261491	     13.09736233	      2.08809111	      5.59356725	      1.77029196	     26.10497283	     26.10497283	      9.43143839	      9.43143839	     27.19217647	     27.19217647	      2.76307435	     50.99597937	     -9.56042239	      5.21997485	     -0.02578839	      1.48581788	     -2.76307435	    -50.99597937	      9.56042239	     -1.74637766	      0.02558040	     -0.48301696	     -3.31599387	     20.97615968	     -3.40468921	      0.94473225	     -0.02138609	     -1.00501789	      3.31599387	    -20.97615968	      3.40468921	      0.28075727	      0.00368718	     -0.29758878	     11.78410419	     83.38528758	     -0.34163608	     -1.98216852	      0.31023359	      5.31730476	    -11.78410419	    -83.38528758	      0.34163608	      2.62049413	     -0.38078156	     -0.51853574	     57.49658578	    103.72481241	     -2.65670118	      3.25452917	     -1.20272824	     24.64131907	    -57.49658578	   -103.72481241	      2.65670118	     -1.60124065	      0.86161898	     -2.17851743	      0.00000000	      0.00000000	      0.00000000	      0.00000000	      0.00000000	      0.00000000	      0.00000000	      0.00000000	      0.00000000	      0.00000000	      0.00000000	      0.00000000	      0.00000000	      0.00000000	      0.00000000	      0.00000000	      0.00000000	      0.00000000	      0.00000000	      0.00000000	      0.00000000	      0.00000000	      0.00000000	      0.00000000	      0.00000000	      0.00000000	      0.00000000	      0.00000000	      0.00000000	      0.00000000	      0.00000000	      0.00000000	      0.00000000	      0.00000000	      0.00000000	      0.00000000	      0.06440145	    -13.27069400	     -3.35748348	      0.50327238	      0.01052329	     -0.03212484	     -0.06440145	     13.27069400	      3.35748348	     -1.71531486	     -0.02066737	      0.04897133	     24.46533471	     45.44140091	      0.00000000	      0.00000000	      0.00000000	     18.04313583	     45.92188907	      0.83276818	      0.00000000	      0.04255717	      0.00000000	      0.00000000	      0.00000001	      0.00000000	    110.00000000	      0.00000000	      0.00000000
      0.34789885	      7.90448212	      5.91111291	      6.33068716	      2.76909487	      3.29816922	      3.34323248	     11.45699292	      4.86716468	      7.56741560	      7.44911126	      1.74150974	      5.85927174	      4.31103394	      3.04439781	      2.56177229	      4.18224223	      4.25791902	      2.33206781	      1.76182221	      3.81430169	      5.79720022	      4.33082796	     23.09276964	     13.46805020	      3.78026956	      2.92636659	      4.37052112	     12.11661742	      8.64532088	      7.45121171	      7.97616718	      4.53968724	      2.03154172	      9.11303883	     12.23936023	      2.63033301	      2.63111915	     13.45243813	      3.36005983	      6.64078963	      9.22243282	      7.23959902	      1.87964373	      7.90448212	      5.91111291	      6.33068716	      2.76909487	      3.29816922	      3.34323248	      9.26243755	      4.27422949	      8.11411421	      7.52182745	      1.58241232	      5.85927174	      4.31103394	      3.04439781	      2.56177229	      4.18224223	      4.21756466	      2.33206781	      1.62411824	      3.81430169	      5.79720022	      4.33082796	     23.09276964	     13.46805020	      3.78026956	      2.92636659	      4.37052112	     11.25443545	      6.88495100	      7.90419495	      8.49729753	     15.14274903	      7.03188589	     33.21586048	     43.20095456	      2.99644077	      3.13417512	      8.89420932	      4.59749833	     13.06304839	      2.08359299	      5.57470342	      1.76473561	     26.04501789	     26.04501789	      9.40785838	      9.40785838	     27.17099183	     27.17099183	      2.76307435	     50.99597937	     -9.56042239	      5.21997485	     -0.02578839	      1.48581788	     -2.76307435	    -50.99597937	      9.56042239	     -1.74637766	      0.02558040	     -0.48301696	     -3.31599387	     20.97615968	     -3.40468921	      0.94473225	     -0.02138609	     -1.00501789	      3.31599387	    -20.97615968	      3.40468921	      0.28075727	      0.00368718	     -0.29758878	     11.70873336	     83.69905989	     -0.84271948	     -1.78156536	      0.31106666	      5.29447717	    -11.70873336	    -83.69905989	      0.84271948	      2.61680212	     -0.37983055	     -0.51935120	     57.08198520	    103.69853623	     -3.77934880	      3.71878032	     -1.18412303	     24.46295822	    -57.08198520	   -103.69853623	      3.77934880	     -1.63079443	      0.84783878	     -2.15377228	      0.00000000	      0.00000000	      0.00000000	      0.00000000	      0.00000000	      0.00000000	      0.00000000	      0.00000000	      0.00000000	      0.00000000	      0.00000000	      0.00000000	      0.00000000	      0.00000000	      0.00000000	      0.00000000	      0.00000000	      0.00000000	      0.00000000	      0.00000000	      0.00000000	      0.00000000	      0.00000000	      0.00000000	      0.00000000	      0.00000000	      0.00000000	      0.00000000	      0.00000000	      0.00000000	      0.00000000	      0.00000000	      0.00000000	      0.00000000	      0.00000000	      0.00000000	      0.04009381	    -15.03417564	     -3.73206692	      0.56823368	      0.01061770	     -0.03692696	     -0.04009381	     15.03417564	      3.73206692	     -1.91346698	     -0.02227173	      0.06942188	     24.68180871	     45.69171887	      0.00000000	      0.00000000	      0.00000000	     18.14049890	     46.14105592	      0.22296815	      0.00000000	     -0.56567861	      0.00000000	      0.00000000	      0.00000001	      0.00000000	    110.00000000	      0.00000000	      0.00000000
      0.35222158	      7.88497604	      5.89770533	      6.31614937	      2.76308050	      3.29165585	      3.33499978	     11.47097999	      4.86597743	      7.54305320	      7.38079545	      1.70036553	      5.84582606	      4.30175577	      3.03754139	      2.55586488	      4.17158125	      4.25275228	      2.32697007	      1.75797157	      3.80565336	      5.78401659	      4.32079987	     23.06842549	     13.44060486	      3.77187981	      2.92242081	      4.35551689	     12.11037103	      8.66292556	      7.46090522	      7.96822758	      4.47992020	      1.99719179	      8.97751576	     12.09801122	      2.64498864	      2.74201065	     13.42809743	      3.38418081	      6.66493419	      9.31016436	      7.14264640	      1.78543303	      7.88497604	      5.89770533	      6.31614937	      2.76308050	      3.29165585	      3.33499978	      9.23428083	      4.26378147	      8.09058189	      7.50512284	      1.57899111	      5.84582606	      4.30175577	      3.03754139	      2.55586488	      4.17158125	      4.21096302	      2.32697007	      1.62054573	      3.80565336	      5.78401659	      4.32079987	     23.06842549	     13.44060486	      3.77187981	      2.92242081	      4.35551689	     11.22236936	      6.86896562	      7.88549091	      8.47728472	     15.08196621	      7.00362947	     33.10185678	     43.15542779	      2.98443681	      3.12324626	      8.87001925	      4.58319501	     13.03051329	      2.07934038	      5.55706067	      1.75954883	     25.98832013	     25.98832013	      9.38556335	      9.38556335	     27.15096197	     27.15096197	      2.76307435	     50.99597937	     -9.56042239	      5.21997485	     -0.02578839	      1.48581788	     -2.76307435	    -50.99597937	      9.56042239	     -1.74637766	      0.02558040	     -0.48301696	     -3.31599387	     20.97615968	     -3.40468921	      0.94473225	     -0.02138609	     -1.00501789	      3.31599387	    -20.97615968	      3.40468921	      0.28075727	      0.00368718	     -0.29758878	     11.27588667	     83.91602092	     -1.00414613	     -1.72258050	      0.30068748	      5.11926523	    -11.27588667	    -83.91602092	      1.00414613	      2.62359403	     -0.36654865	     -0.50547504	     57.02883454	    102.86514630	     -3.11687590	      3.41992873	     -1.18601523	     24.44969535	    -57.02883454	   -102.86514630	      3.11687590	     -1.58925795	      0.84655777	     -2.15728399	      0.00000000	      0.00000000	      0.00000000	      0.00000000	      0.00000000	      0.00000000	      0.00000000	      0.00000000	      0.00000000	      0.00000000	      0.00000000	      0.00000000	      0.00000000	      0.00000000	      0.00000000	      0.00000000	      0.00000000	      0.00000000	      0.00000000	      0.00000000	      0.00000000	      0.00000000	      0.00000000	      0.00000000	      0.00000000	      0.00000000	      0.00000000	      0.00000000	      0.00000000	      0.00000000	      0.00000000	      0.00000000	      0.00000000	      0.00000000	      0.00000000	      0.00000000	      0.08597752	    -16.79484191	     -4.17282891	      0.63588100	      0.01282134	     -0.03874335	     -0.08597752	     16.79484191	      4.17282891	     -2.13968664	     -0.02582004	      0.06007603	     25.00086278	     46.04520846	      0.00000000	      0.00000000	      0.00000000	     18.93025136	     47.02468377	      0.82235286	      0.00000000	      0.01517854	      0.00000000	      0.00000000	      0.00000001	      0.00000000	    110.00000000	      0.00000000	      0.00000000
      0.35654430	      7.86653354	      5.88502716	      6.30240288	      2.75739279	      3.28549666	      3.32721591	     11.49196018	      4.86743473	      7.53568386	      7.43085841	      1.75042782	      5.83311224	      4.29298135	      3.03105797	      2.55027918	      4.16150191	      4.25213531	      2.32214928	      1.76072270	      3.79747575	      5.77155057	      4.31131792	     23.04540768	     13.41465859	      3.76394612	      2.91869059	      4.34130264	     12.12054640	      8.68940650	      7.49327702	      7.98739081	      4.44178108	      1.97527826	      8.86737008	     11.96745069	      2.65330750	      2.84569331	     13.41096856	      3.39417828	      6.67756759	      9.31203234	      7.07920952	      1.69853134	      7.86653354	      5.88502716	      6.30240288	      2.75739279	      3.28549666	      3.32721591	      9.20764555	      4.25390300	      8.06832647	      7.48932638	      1.57575568	      5.83311224	      4.29298135	      3.03105797	      2.55027918	      4.16150191	      4.20472185	      2.32214928	      1.61716735	      3.79747575	      5.77155057	      4.31131792	     23.04540768	     13.41465859	      3.76394612	      2.91869059	      4.34130264	     11.19204529	      6.85385143	      7.86780686	      8.45836350	     15.02420759	      6.97677878	     32.99386466	     43.11234277	      2.97288963	      3.11280832	      8.84714673	      4.56966131	     12.99966553	      2.07531978	      5.54055273	      1.75470326	     25.93470201	     25.93470201	      9.36448287	      9.36448287	     27.13202354	     27.13202354	      2.76307435	     50.99597937	     -9.56042239	      5.21997485	     -0.02578839	      1.48581788	     -2.76307435	    -50.99597937	      9.56042239	     -1.74637766	      0.02558040	     -0.48301696	     -3.31599387	     20.97615968	     -3.40468921	      0.94473225	     -0.02138609	     -1.00501789	      3.31599387	    -20.97615968	      3.40468921	      0.28075727	      0.00368718	     -0.29758878	     11.08094540	     83.99805555	     -1.51440284	     -1.51261800	      0.29816473	      5.04444120	    -11.08094540	    -83.99805555	      1.51440284	      2.61284453	     -0.36138989	     -0.50089510	     57.06193297	    102.77362627	     -4.27302073	      3.90910092	     -1.18307384	     24.46762799	    -57.06193297	   -102.77362627	      4.27302073	     -1.63104072	      0.84588181	     -2.15646298	      0.00000000	      0.00000000	      0.00000000	      0.00000000	      0.00000000	      0.00000000	      0.00000000	      0.00000000	      0.00000000	      0.00000000	      0.00000000	      0.00000000	      0.00000000	      0.00000000	      0.00000000	      0.00000000	      0.00000000	      0.00000000	      0.00000000	      0.00000000	      0.00000000	      0.00000000	      0.00000000	      0.00000000	      0.00000000	      0.00000000	      0.00000000	      0.00000000	      0.00000000	      0.00000000	      0.00000000	      0.00000000	      0.00000000	      0.00000000	      0.00000000	      0.00000000	      0.00571540	    -18.20604519	     -4.41780038	      0.68607441	      0.01095711	     -0.04450687	     -0.00571540	     18.20604519	      4.41780038	     -2.27515219	     -0.02547124	      0.10226472	     25.42073290	     46.55227784	      0.00000000	      0.00000000	      0.00000000	     19.23509298	     47.45223392	      0.53370535	      0.00000000	     -0.25109782	      0.00000000	      0.00000000	      0.00000001	      0.00000000	    110.00000000	      0.00000000	      0.00000000
